<mxfile host="app.diagrams.net" agent="Mozilla/5.0 (X11; Linux x86_64) AppleWebKit/537.36 (KHTML, like Gecko) Chrome/136.0.0.0 Safari/537.36" version="27.0.9">
  <diagram name="Page-1" id="5GnNvvF4p0nCXxnQhoUn">
    <mxGraphModel dx="1512" dy="866" grid="1" gridSize="10" guides="1" tooltips="1" connect="1" arrows="1" fold="1" page="1" pageScale="1" pageWidth="850" pageHeight="1100" math="0" shadow="0">
      <root>
        <mxCell id="0" />
        <mxCell id="1" parent="0" />
        <mxCell id="gxBPZsxsgBhhMbRabht_-5" value="Speech Input" style="rounded=1;whiteSpace=wrap;html=1;fillColor=none;" vertex="1" parent="1">
          <mxGeometry x="454" y="230" width="90" height="30" as="geometry" />
        </mxCell>
        <mxCell id="gxBPZsxsgBhhMbRabht_-23" style="edgeStyle=orthogonalEdgeStyle;rounded=0;orthogonalLoop=1;jettySize=auto;html=1;exitX=0.5;exitY=1;exitDx=0;exitDy=0;entryX=0.5;entryY=0;entryDx=0;entryDy=0;" edge="1" parent="1" source="gxBPZsxsgBhhMbRabht_-8" target="gxBPZsxsgBhhMbRabht_-21">
          <mxGeometry relative="1" as="geometry" />
        </mxCell>
        <mxCell id="gxBPZsxsgBhhMbRabht_-8" value="Acoustic Feature" style="rounded=1;whiteSpace=wrap;html=1;fillColor=#dae8fc;strokeColor=#6c8ebf;" vertex="1" parent="1">
          <mxGeometry x="364" y="292" width="90" height="30" as="geometry" />
        </mxCell>
        <mxCell id="gxBPZsxsgBhhMbRabht_-24" style="edgeStyle=orthogonalEdgeStyle;rounded=0;orthogonalLoop=1;jettySize=auto;html=1;exitX=0.5;exitY=1;exitDx=0;exitDy=0;entryX=0.5;entryY=0;entryDx=0;entryDy=0;" edge="1" parent="1" source="gxBPZsxsgBhhMbRabht_-9" target="gxBPZsxsgBhhMbRabht_-12">
          <mxGeometry relative="1" as="geometry" />
        </mxCell>
        <mxCell id="gxBPZsxsgBhhMbRabht_-9" value="rtMRI" style="rounded=1;whiteSpace=wrap;html=1;fillColor=#f8cecc;strokeColor=#b85450;" vertex="1" parent="1">
          <mxGeometry x="544" y="292" width="90" height="30" as="geometry" />
        </mxCell>
        <mxCell id="gxBPZsxsgBhhMbRabht_-12" value="Generated&amp;nbsp;&lt;div&gt;visual feature&lt;/div&gt;" style="rounded=1;whiteSpace=wrap;html=1;fillColor=#dae8fc;strokeColor=#6c8ebf;" vertex="1" parent="1">
          <mxGeometry x="544" y="350" width="90" height="30" as="geometry" />
        </mxCell>
        <mxCell id="gxBPZsxsgBhhMbRabht_-14" value="Your Pronunciation&lt;div&gt;score is 50%&lt;/div&gt;" style="text;html=1;align=center;verticalAlign=middle;resizable=0;points=[];autosize=1;fillColor=none;" vertex="1" parent="1">
          <mxGeometry x="349" y="413" width="120" height="40" as="geometry" />
        </mxCell>
        <mxCell id="gxBPZsxsgBhhMbRabht_-15" value="&quot;Move middle&amp;nbsp;&lt;div&gt;tongue upper&quot;&lt;/div&gt;" style="text;html=1;align=center;verticalAlign=middle;resizable=0;points=[];autosize=1;fillColor=none;" vertex="1" parent="1">
          <mxGeometry x="544" y="413" width="100" height="40" as="geometry" />
        </mxCell>
        <mxCell id="gxBPZsxsgBhhMbRabht_-16" value="" style="shape=image;verticalLabelPosition=bottom;labelBackgroundColor=default;verticalAlign=top;aspect=fixed;imageAspect=0;image=data:image/png,iVBORw0KGgoAAAANSUhEUgAAAJEAAACuCAYAAAA29O9bAAAACXBIWXMAAA7DAAAOwwHHb6hkAAAAGXRFWHRTb2Z0d2FyZQB3d3cuaW5rc2NhcGUub3Jnm+48GgAAFXJJREFUeJztnXmwbEddxz/f+5bkvZd94UEeWVgCJKRYAhLCUiQuGAEjSxRQLEAsQVE2C0sUcaOKEgo0UCRgIWupKLIkIItUIJRhk0SISZAlKiHLy0YWEvJe8t67X//onptze/rMnJk5Z+bMzPlU3bozffr06Tnnd3796+5f/1q2WWYkrQBfBJ7cS2rwcr2bfQ/wbuA1tvc1eL2poGUUIkkXAyfTrMCMioEfASfYvnnWlRmFpRAiSZuB24Ats67LCBi4Hdhu+55ZV2YQCy1Ekq4BjmK6Gid3Q9O0lTHK3QfssH3DGOc2yjg/ptVIeo6kVUkGdjCeABm4G/g28AbgocAG26rwt5L525D8ybaAS8gLXY4NwPWSLGnnGL+pMRZGE0m6DrjfiKcZ+A7wfNuX1l+r6kj6feDNjPZim9Dc3dRMraox10IUbZ1dVL/xq8A5wCttrzZWsQmR9BDgm8DWiqcYeIbtTzdXq3LmUogkHQHcSLWmai9wuu2Lmq1VM0g6idDsba6Q3cBzbH+82VqtZ65sIkmPlLQK3MRgATLwzmh7bJpXAQKwfbnt/aIN9fcMtqEEfCzahIdNp4ZzookkPR74CsM1zyrwSNuXN1+r2RG106UMVwJ7bFfRYJPVp81CJOlo4CqGC88dwBFtH0+pG0kbgJuBQ4Zk/YDtFzVWjzYKUTSYdzNceL5j+4QpVKn1SLoQeMqALPtsb2zi2q2ziSTdQxijKRMgAx+M9k4nQBHbp0W76TfJ200b4hjT4+q+dmuESNKH4gDhppIsBp4VB+9eOMWqzRW2/872CnAAwUZM+bqkD9V5zZk3Z5I2MVzzHG771unVarGQtJcw4l3kW7YfXUf5M9VEkt5LcItIBcjAmYVphE6AJiDaQqm2eJSkq+sof2aaSNLtwEElhzcugp9Nm5B0KHBL5tBO20dNUvZMNFE0nlMB2gucGrVPJ0A1E7X5NtY7xgHcT9JE42pTFyJJT6TfeHYcWf7atOuzTNi+Kxrd57PehHi4pPPGLXdqzZmkXcD+SfJngb+w/dWpVKJjjTh9lNqiv2j7UyOXNQ0hKukdOL4VHTMg+pb3mQ1xrGkkGn+IknbTL0AAhzd97Y5yoivME9L0qKFGolEhkvR9YL/MoZd03fbZE82ITazv/kvSt0cppzEhkvQ84MGZQ39j+71NXbdjNGzvjWZFsWk7QVLu5c/SmE0UpzBS3mH7FY1csGMiJO0BihO0lW3WRjSRpNw4z0s7AWovtjexfq5Nkt5e5dzaNZGkVwBnF5IMHGb7tlov1NEIaU+6Sm+tCSFaN/4wTpexY3ZIupMwst3jRtvbB51Ta3MWrfqi0LTP461jGOl01H2GnVC3TZQ6if1bzeV3NEwcP1r38se5zlJqEyJJH8tU6Iy6yu+YKu9Jvm+Kfl9ZarOJMnMxjfn0djRPZoimtMtfZ3OWGtBPrbHsjumzN/muON/WRy2aSNKDgCuLaV2vbL6RtB24PknOti51aaIP11ROR0soCWGTm0ivTYhOSutQU7kds+WCNEHSZX1pNTVnqb9Q5yu0IFQxsOt60J39s7ik86CSdGQxoS4hSqW1E6rF4bmZtHWR2upqzvr8p7ve2eKQc+spPt+6NNGNNZXT0U7uShNioDGgPiF6V03ldLSTh2bS1pq0upozkQQP6JqzxWJQL60WTeRZR4XomAbpKpDabaKOxeedaYKk34JmZ/F32L6ulsI7Zk7OZAFWbW9oUhO9vMGyO6ZMickiqFcT7QTuW0i63vaoEe47Wkxu/b7tvH/ImPxZ8v3IXKaOuSa7YqdOTbQR2FNI6iZhF4y4qvkfk+Qn1bpkKBlL6IRoAcmMF+3shKhjJHKDjt1D7piYOpcMdfGGloM+t586NVE6k79U+2wsEX1BsGoRIkkvyZR1RC5vx9xzbZpQlyZKV0za9p01ld3RLj6TJkwsRHHH55RjJy23o7X07QsyURdf0n1J/G2Jk3JjF9rRauI2YnevS5tQiLJzKWMX2DEXpGNFYzdnkr5M/6qOT45bXsf8MpYmipvU/ihJHrrfqKSzCHMvG5jOsqJV4Djbteym0xFINdG4QpQ2Y3tj4Mhc3luBg5mO0JRhwj6oL55hHRaGiZszSf9JElIvFSBJT43bapuwye2s7SQBLxonWnxHlnVCNFIQKkmnAKW79Ul6OHAZsxeaMhQF6QDbfWupOsZjpOYsN4NL2OButWQTmGGYYLfsIsTCuY6whfn18ZiB2+PxGwlOUeLeSP2HEPY63RL/bweOBo5jfQTUHEfZTocnOiqQPuvKQiTpLsLD6rHm6lGy7VGKgf8BTredG6CsHUm/DZwzIMv+tu8ecLwjQxqmuJJNJOltrBcg6DlpDxegbwIrcS/X46clQAC2z43jVmWCsmtadVkwflj8MlSI4kYhr84cepekZ1AuQJfErThPnvXiRtv7AznhVWdsj8WFxS9Dm7OMpjHweuAvKRfCLbZ3j1/HZpB0A/ng3sfa/mEmvSODpMcC31j7PkiIMsuAbHtlQBPW+nkzSXcD6aBo58o7AumujaU3TtKzWS9AMVn7mFMBArC9HxnvvLjCs6MCMer+GoPevo9m0t5fco7nQYAK5Lr/+8riNHcMJh/cOm9sfhh4UUk5cxU53/Yu4DVJsgiC1PlCjUifTSTpG8BjC0nPtH3eADvoAbZ/0FwVm6PM0O7cWYZTHHjOCVHf2rG4y0xugvUPbL+lmWpOh5KXozO0h1CUk5XkQNkO0bnm6op5F6BIzn1Fkp4uqQtIUc56IZJ0YGHGvcjLJF1M/5u6z3YaRX8usb0XeGXm0PnAdd1g5HB6Gub2zDEDZwKPSdPnbQsqSRsIUUpOBB4HPAV4VExbYfC0jSStds1bORslnUf+Jh4I3JE7J02Q9DTCwzkRuD/h4WyJf5sJ9lTPm7H3V5VZGLmrwMWE3wRBkN5o+/UzqEtb2Uu0k3sh1NIHdQ95W+Fkws1dxLfSwFm2PwbV9rRYZiR9BjgDgvBUnRz9FPB02utwNg3Otf07s65EW+i9aFWFqDffVCZAe7jXwaznTCZC05c2f33d6aQeuTqpkG9cVgkOb9sJW0iM2qxCp43WKM6fVbkhq8CLKb/hr7a92fZ+trfY3mp7W/y/OfoRFf+U/K0U/qefV+JDOwq4gtDMesw/EVbm3g38FbA5rQtBwAYt/5akxw04vkys9eRFeDBlOw3vs71R0kkE3+mU42xf1UAF15B0IPDjJq9BELJzbb88XnOQo93SayNJhwKfJ/bcZbsXo/giQm9khWB5n2T7+4UTGx3ZlXQBcFrmGtO2wUzw0y71wFz2aZHoHruVnnfrCD7WjwAuzRz6Ndv/MGGlbgcOmqSMKbPU4ZULA7Cjx7GWtId+Q3ksbSRpG2EcahZv9aSb/C11kzbRCtiS0PwAT7X9+YplHAP8gGoPzgRBu5LQBn8EuDROVaT1egLwM8CDCCtuVwgDnBuBnwA3AzcQVpxcYfsbhfN3MKD5KmFpV4r0jaHZHukP+AL9PZ99Fc47lPVDAGV/q8AbKpR3H4JgjNtb613r/bG8g0c89+5R790i/AEvTe/FuGvxRxrNlXQ0yTKTDAZ+2vaFA8rZCOxm9EWSVfg68GTCEECl5m0ZDeycj3oj7bqkZ0t6S/y8geEC9No4JnRhSXkXR2NuD80IEMApBO2yQsVR/CjUy0Y6HFS/JipZYlT2xn7f9kNKrrEDuHrAuU2yjTDoOOzaP7Z98BTq0xoaD4ZeshKk7EGcnBMgSWdHQbxmwLk5DNwEvAPYARxGMH57o9H7x7QHAueR7yD0+Amw35A8EDwdlgZJWzPJV41rXPUZqCXp12TSDDw4U+YNJXkHGcUXAlsnMBJFmE/Lll/I9xLg1ly+WRu6UzaqP5q5B6fWJUSfA76SSc/1eD5eKGczYRJvFMH5RAM357nDBCnme1Umz1mzfrhTFKI96e+3PXaktHUn2VbGFupxK6F7X8x7CHBLSf4cdwKH224sSv+AsaJrbd+/kC+9YXOxaLMOMr8d17RpXq/gMoE4tPD5xdFuunVA/iJXONg0BzYpQAC2ryX0VtMbtSNZ1JgeX7pufgFDPV38h41wwXMrXvNLUXimuhjAgRX6DeriCHkajmYphEjS6WXHJhWifcDuisuP70Po8QziU1F4TpuwXhMRm6didFwVeiZ/muaXlIs0smh8OJN2CYw4d9Yj1zYO4Wu2Tx1gN33N9qkjV6RBJL2A9VsQ2GEhZ27+cKfto6ZXu+lT8uw22d47rhBdBlRpavYCD3KM/SPpX4GnZfI9wnbO6W2m5DoQuXSGTPssAmVGNYypiWKhK4Qu36g3r2wEe5tbFtE1c+PKNOpCC1GJd+nab57kh4+rvssM0TZubZUK0Snx/94kfdGN6y9m0taW3I8lRJL+iTCvNa4Q5tRfG+MnpsMKPWG5aNoVmTEnZ9LWlMi4QvDLyfdR28SyN7dtb/SvpgkxXmHf9g6Sfm4qNZoNfc/FBYe8cQ3r1E2213O5nrDsZmzcMh+djF10s+0jM+lX2T5uStWaKsM6EuNqov37r6M7bd8XmMQ4Hs/Kny6HlaQfM9VaTAlJ78skP6X4ZSwhst2bNC2yTdI5trdljlXlp8Y8b5q0SlNOgRemCbb/vfh9ki7+JjLblscJ1q0En5yqmNDFb12E+zJVHucAV9L0KVZtKlSZcB77R9veQ0aIJO2L4z1vyJz2euAsgvPYTuD5vnfZdOsEaAi3Jd+XRUP1OeJNugds2RKiLbZ3S9rFvfbTXL6pAzTRewjOasUDCyVIkv6c9cog+wwneqgOEnhd5tBP4vEthKXRF8+jAA3hj2ZdgSnwx8n3X8plmkgTQbk2WpS3csiihOzc2qKQiyScyzexdojaaN/QjHNIfEFGyX9AU3WZNrHjUOQ5ZXnramJurKmctpHubQKDhy9KHbfmCYWdFdOe58fL8tclRAulxgvkQusNGrp4QVMVmRaxM5T6jJfFrwLqE6IjaiqnbfxuJq0YXifVSmm45rlC0jX0z0ZcFQeXS6lLiBZ1OXFudeu/DMg/0bzhLJH0z4RFn0VcZT5w0brddZNrps8vfE41UfoWzwWSzqTfMwMqxj2YWIgkPT+T3Da/oJGRVGZIFtempb9z7l5KhT1+z8scOsMVx3/q+NG5Wd6311DurHlmhTyNroWbErnppk/a/lzVAuoQor5lQLZzu1fPDZJeOuDw8YXPe5quS5OUrOD4nu0zRyln7tTvlHjXgGPnFD7P7SCrpK/QL0AfsP3QUcuaqFcl6W2Z5Lm9sQCSvjAky4mFz0Wb4W76Z/ZbSbSD0nV+Z9r+5DjlTaqJfi+TltuAeJ5IR53fmnw/pfB57f7Z3p8QsX8eSO0gjytAMLkQ5bqAuQ3o5oI43J+yzh3W9v8Vvh6YHGt9NFlJb6W/GevzXhypzAn9ifoMs3mdyZZ0BvCZIdnusH1Qxqtxbn53E89sUUeax+HTwzJEAcr1aObCDoxOZrXXfdLmbB5WZwxF0vMYPol8bQy/m+Y73/OznemfZNIePmmhkzZnc6vWi0g6lhDlfxDbCXElU+bG7XdQUIZJmPQN+hDrjbKpaqbYVT2KIMj3J3S/txL24jqAEEr4P2y/Z1A5tq+KLhBbSrJcAFxfVo1CfQ6x3cpuvqQrM8m31FJ2De6xxQJWbW+QtLmO8HiSDiKMvdSh3b5l+9FDrreb/Ai8BsVkSkLOtFIzldhyB9nObRY9Wtk1CNGdhDe+jC+lkc/iurTTCa4HxxBmv28hvO3fBb5NaD52AI8kDIwdDzyEe7feHAcTYltnBbzkRr+P4Cf0iNJC50OIGmnKoAYhgtKb32b6gmqV/QaXR8b9EXB4L08so5VCJGk7/c3xjbZr8X+q5ceWBMtsM/8laW2OKAbsyr0EZ/eyZI5N3AxMkW9l0p5QV+G1aKK1wkIs6B+SD+Vbld7qkXvi3y7CllS3EaJ1XUNYQXsHoQm8jfVhjg8mBFnfRtiC/VGlF7pXg+wlM/oetdBngZ/P1PG7xMi5Md9GYrDwFmqiRgeFaxWitiLpTcAfZg71OgK5m9Bb6Zo9Bvw3cTI2CtGJhB2z2yhEjcaYbNWPbQrbryNsDJOyIim7qhNYlXRJyTHR34vLeXi2lVqb4qXQRD0ywbmgPBBpZaImugh4Ii3TRCUrlN9t+2V1XaM1P3ZK5Iz/umyDnqZrWy8154B/TiZtbJZNE/VN09TEfoRoqluhXVM/kq4mjOYX2VpnKJ9l00RN/d6DGb7lxKy4X5pQdyyoZROipngM7WvGejRer3lxYZgYST/bYPHDnNlmSeNCtDQ2UYU5vrpoW++sce/T1vzYKTCJAK3Szm0jWsFSCNGowaoKGHhAjJb66zVWaaFYCiECPpJJu4Dhk8Ybbf8AwPYn6q7UorAUNlGZXSDptcCbS07bl/pOD3JMW190ZxMtIulNC/uy228ZcE5uLmzx37gxWHghkvSsTPJpw86znWsC29yVH0Sjwr/wzZmkGwibGK9RVOdxGdDm5LTSJqlCk9bG5gwK2rhrzkYn3RXo9uR7Lr7SLwwob9iUQRu3l+g00SSkk66JFho5kLukOwjLkcrYRHB2a4W7sKTXAZdTCBPYaaLRccln6N/LFYYvKx64dMj2XuA3KtatcWy/if6AnrWyDEJUjNSRbn6ceyMH9dggL3j3FihdDvxthXpNkxOaLHwZhKjo4nq2pKOH5P/SkOPD2v8TaN+M/vHDs4zPMgjRXxc+/wpwVeF7rul675DyBmoi2idA0DVnE5NOVxQfci5AQ24/jyLzGOzzyCYLX3ghysViLkzI/m/mlGGaZB41UaO7Hy28EJXQmy8bJ8DTPGqiRl13l1WIXhP/j/OGtj4uY4ZK2yuMy7IIUdqk9ZqcB4xR1l1lByQ9sPC50Qc3Iuue8wT+VcMLXyJ6N/GQzLFhXfhbBxwrhis+sTTX7KnVt35ZhKhsPiv3+3N7nBW5acCx0wqfJwrr2zDphPNELIsQfbAkPRePaNjq0J0Djh1U+Nzk6pJJqdXQXhYhelWaICm31WaV2ejc2FKP4v08pkJZ0yJ9WTpNNColke7fmEm7okJxubGlHAcOzzIzal06tRRCVEJOU5ySSUv5XsXy29Q7Szm8zsKWZgUs/SFkcvZQafe9wNUVrzdRN1rSNkKg8hOAxxOE/mhCj/IgQgDUDQRFkF5r2LUPHXJ8JJZJiIZR1Tuv8iLGGA/pSkKIwCsJ0dUuIwwT7CKEC7wF2M10n0WtzdkyCdGXgScNOP7VKoXY3jfCWN1GQlzHh9Gu3trAfe5HZeHdY4sMCJU8knN9xfVnbcXAIbZ/XFeB/w/ZEVg0Yb+qQgAAAABJRU5ErkJggg==;fillColor=none;" vertex="1" parent="1">
          <mxGeometry x="513" y="408" width="41.67" height="50" as="geometry" />
        </mxCell>
        <mxCell id="gxBPZsxsgBhhMbRabht_-17" style="edgeStyle=orthogonalEdgeStyle;rounded=0;orthogonalLoop=1;jettySize=auto;html=1;fillColor=none;exitX=0.5;exitY=1;exitDx=0;exitDy=0;" edge="1" parent="1" source="gxBPZsxsgBhhMbRabht_-5">
          <mxGeometry relative="1" as="geometry">
            <mxPoint x="498.969696969697" y="301.9999999999999" as="targetPoint" />
            <mxPoint x="499" y="240" as="sourcePoint" />
          </mxGeometry>
        </mxCell>
        <mxCell id="gxBPZsxsgBhhMbRabht_-19" value="" style="shape=flexArrow;endArrow=classic;startArrow=classic;html=1;rounded=0;exitX=1;exitY=0.5;exitDx=0;exitDy=0;fillColor=none;" edge="1" parent="1">
          <mxGeometry width="100" height="100" relative="1" as="geometry">
            <mxPoint x="454" y="307" as="sourcePoint" />
            <mxPoint x="544" y="306.5" as="targetPoint" />
          </mxGeometry>
        </mxCell>
        <mxCell id="gxBPZsxsgBhhMbRabht_-21" value="Phoneme" style="rounded=1;whiteSpace=wrap;html=1;fillColor=#dae8fc;strokeColor=#6c8ebf;" vertex="1" parent="1">
          <mxGeometry x="364" y="350" width="90" height="30" as="geometry" />
        </mxCell>
        <mxCell id="gxBPZsxsgBhhMbRabht_-25" style="edgeStyle=orthogonalEdgeStyle;rounded=0;orthogonalLoop=1;jettySize=auto;html=1;exitX=0.5;exitY=1;exitDx=0;exitDy=0;entryX=0.505;entryY=0.04;entryDx=0;entryDy=0;entryPerimeter=0;" edge="1" parent="1" source="gxBPZsxsgBhhMbRabht_-21" target="gxBPZsxsgBhhMbRabht_-14">
          <mxGeometry relative="1" as="geometry" />
        </mxCell>
        <mxCell id="gxBPZsxsgBhhMbRabht_-26" style="edgeStyle=orthogonalEdgeStyle;rounded=0;orthogonalLoop=1;jettySize=auto;html=1;exitX=0.5;exitY=1;exitDx=0;exitDy=0;entryX=0.46;entryY=0;entryDx=0;entryDy=0;entryPerimeter=0;" edge="1" parent="1" source="gxBPZsxsgBhhMbRabht_-12" target="gxBPZsxsgBhhMbRabht_-15">
          <mxGeometry relative="1" as="geometry" />
        </mxCell>
      </root>
    </mxGraphModel>
  </diagram>
</mxfile>
